<?xml version="1.0" encoding="UTF-8"?>
<?xml-stylesheet href="https://cdnjs.cloudflare.com/ajax/libs/font-awesome/7.2.0/css/all.min.css" type="text/css"?>
<svg id="graph-97" width="100%" xmlns="http://www.w3.org/2000/svg" class="flowchart" style="overflow: hidden; max-width: 100%; touch-action: none; user-select: none; background-color: rgb(255, 255, 255);" role="graphics-document document" aria-roledescription="flowchart-v2" height="100%" xmlns:xlink="http://www.w3.org/1999/xlink" xmlns:ev="http://www.w3.org/2001/xml-events"><defs><filter id="graph-97-drop-shadow" height="130%" width="130%"><feDropShadow dx="4" dy="4" stdDeviation="0" flood-opacity="0.06" flood-color="#000000"></feDropShadow></filter></defs><defs><filter id="graph-97-drop-shadow-small" height="150%" width="150%"><feDropShadow dx="2" dy="2" stdDeviation="0" flood-opacity="0.06" flood-color="#000000"></feDropShadow></filter></defs><g id="viewport-20260721084159276" class="svg-pan-zoom_viewport" transform="matrix(0.5168250203132629,0,0,0.5168250203132629,118.29048919677734,257.73370361328125)" style="transform: matrix(0.516825, 0, 0, 0.516825, 118.29, 257.734);"><style>#graph-97{font-family:"trebuchet ms",verdana,arial,sans-serif;font-size:16px;fill:#333;}@keyframes edge-animation-frame{from{stroke-dashoffset:0;}}@keyframes dash{to{stroke-dashoffset:0;}}#graph-97 .edge-animation-slow{stroke-dasharray:9,5!important;stroke-dashoffset:900;animation:dash 50s linear infinite;stroke-linecap:round;}#graph-97 .edge-animation-fast{stroke-dasharray:9,5!important;stroke-dashoffset:900;animation:dash 20s linear infinite;stroke-linecap:round;}#graph-97 .error-icon{fill:#552222;}#graph-97 .error-text{fill:#552222;stroke:#552222;}#graph-97 .edge-thickness-normal{stroke-width:1px;}#graph-97 .edge-thickness-thick{stroke-width:3.5px;}#graph-97 .edge-pattern-solid{stroke-dasharray:0;}#graph-97 .edge-thickness-invisible{stroke-width:0;fill:none;}#graph-97 .edge-pattern-dashed{stroke-dasharray:3;}#graph-97 .edge-pattern-dotted{stroke-dasharray:2;}#graph-97 .marker{fill:#333333;stroke:#333333;}#graph-97 .marker.cross{stroke:#333333;}#graph-97 svg{font-family:"trebuchet ms",verdana,arial,sans-serif;font-size:16px;}#graph-97 p{margin:0;}#graph-97 .label{font-family:"trebuchet ms",verdana,arial,sans-serif;color:#333;}#graph-97 .cluster-label text{fill:#333;}#graph-97 .cluster-label span{color:#333;}#graph-97 .cluster-label span p{background-color:transparent;}#graph-97 .label text,#graph-97 span{fill:#333;color:#333;}#graph-97 .node rect,#graph-97 .node circle,#graph-97 .node ellipse,#graph-97 .node polygon,#graph-97 .node path{fill:#ECECFF;stroke:#9370DB;stroke-width:1px;}#graph-97 .rough-node .label text,#graph-97 .node .label text,#graph-97 .image-shape .label,#graph-97 .icon-shape .label{text-anchor:middle;}#graph-97 .node .katex path{fill:#000;stroke:#000;stroke-width:1px;}#graph-97 .rough-node .label,#graph-97 .node .label,#graph-97 .image-shape .label,#graph-97 .icon-shape .label{text-align:center;}#graph-97 .node.clickable{cursor:pointer;}#graph-97 .root .anchor path{fill:#333333!important;stroke-width:0;stroke:#333333;}#graph-97 .arrowheadPath{fill:#333333;}#graph-97 .edgePath .path{stroke:#333333;stroke-width:1px;}#graph-97 .flowchart-link{stroke:#333333;fill:none;}#graph-97 .edgeLabel{background-color:rgba(232,232,232, 0.8);text-align:center;}#graph-97 .edgeLabel p{background-color:rgba(232,232,232, 0.8);}#graph-97 .edgeLabel rect{opacity:0.5;background-color:rgba(232,232,232, 0.8);fill:rgba(232,232,232, 0.8);}#graph-97 .labelBkg{background-color:rgba(232, 232, 232, 0.5);}#graph-97 .cluster rect{fill:#ffffde;stroke:#aaaa33;stroke-width:1px;}#graph-97 .cluster text{fill:#333;}#graph-97 .cluster span{color:#333;}#graph-97 div.mermaidTooltip{position:absolute;text-align:center;max-width:200px;padding:2px;font-family:"trebuchet ms",verdana,arial,sans-serif;font-size:12px;background:hsl(80, 100%, 96.2745098039%);border:1px solid #aaaa33;border-radius:2px;pointer-events:none;z-index:100;}#graph-97 .flowchartTitleText{text-anchor:middle;font-size:18px;fill:#333;}#graph-97 rect.text{fill:none;stroke-width:0;}#graph-97 .icon-shape,#graph-97 .image-shape{background-color:rgba(232,232,232, 0.8);text-align:center;}#graph-97 .icon-shape p,#graph-97 .image-shape p{background-color:rgba(232,232,232, 0.8);padding:2px;}#graph-97 .icon-shape .label rect,#graph-97 .image-shape .label rect{opacity:0.5;background-color:rgba(232,232,232, 0.8);fill:rgba(232,232,232, 0.8);}#graph-97 .label-icon{display:inline-block;height:1em;overflow:visible;vertical-align:-0.125em;}#graph-97 .node .label-icon path{fill:currentColor;stroke:revert;stroke-width:revert;}#graph-97 .node .neo-node{stroke:#9370DB;}#graph-97 [data-look="neo"].node rect,#graph-97 [data-look="neo"].cluster rect,#graph-97 [data-look="neo"].node polygon{stroke:#9370DB;filter:drop-shadow(1px 2px 2px rgba(185, 185, 185, 1));}#graph-97 [data-look="neo"].swimlane.cluster rect{filter:none;}#graph-97 [data-look="neo"].node path{stroke:#9370DB;stroke-width:1px;}#graph-97 [data-look="neo"].node .outer-path{filter:drop-shadow(1px 2px 2px rgba(185, 185, 185, 1));}#graph-97 [data-look="neo"].node .neo-line path{stroke:#9370DB;filter:none;}#graph-97 [data-look="neo"].node circle{stroke:#9370DB;filter:drop-shadow(1px 2px 2px rgba(185, 185, 185, 1));}#graph-97 [data-look="neo"].node circle .state-start{fill:#000000;}#graph-97 [data-look="neo"].icon-shape .icon{fill:#9370DB;filter:drop-shadow(1px 2px 2px rgba(185, 185, 185, 1));}#graph-97 [data-look="neo"].icon-shape .icon-neo path{stroke:#9370DB;filter:drop-shadow(1px 2px 2px rgba(185, 185, 185, 1));}#graph-97 :root{--mermaid-font-family:"trebuchet ms",verdana,arial,sans-serif;}</style><g><marker id="graph-97_flowchart-v2-pointEnd" class="marker flowchart-v2" viewBox="0 0 10 10" refX="5" refY="5" markerUnits="userSpaceOnUse" markerWidth="8" markerHeight="8" orient="auto"><path d="M 0 0 L 10 5 L 0 10 z" class="arrowMarkerPath" style="stroke-width: 1px; stroke-dasharray: 1px, 0px;"></path></marker><marker id="graph-97_flowchart-v2-pointStart" class="marker flowchart-v2" viewBox="0 0 10 10" refX="4.5" refY="5" markerUnits="userSpaceOnUse" markerWidth="8" markerHeight="8" orient="auto"><path d="M 0 5 L 10 10 L 10 0 z" class="arrowMarkerPath" style="stroke-width: 1px; stroke-dasharray: 1px, 0px;"></path></marker><marker id="graph-97_flowchart-v2-pointEnd-margin" class="marker flowchart-v2" viewBox="0 0 11.5 14" refX="11.5" refY="7" markerUnits="userSpaceOnUse" markerWidth="10.5" markerHeight="14" orient="auto"><path d="M 0 0 L 11.5 7 L 0 14 z" class="arrowMarkerPath" style="stroke-width: 0px; stroke-dasharray: 1px, 0px;"></path></marker><marker id="graph-97_flowchart-v2-pointStart-margin" class="marker flowchart-v2" viewBox="0 0 11.5 14" refX="1" refY="7" markerUnits="userSpaceOnUse" markerWidth="11.5" markerHeight="14" orient="auto"><polygon points="0,7 11.5,14 11.5,0" class="arrowMarkerPath" style="stroke-width: 0px; stroke-dasharray: 1px, 0px;"></polygon></marker><marker id="graph-97_flowchart-v2-circleEnd" class="marker flowchart-v2" viewBox="0 0 10 10" refX="11" refY="5" markerUnits="userSpaceOnUse" markerWidth="11" markerHeight="11" orient="auto"><circle cx="5" cy="5" r="5" class="arrowMarkerPath" style="stroke-width: 1px; stroke-dasharray: 1px, 0px;"></circle></marker><marker id="graph-97_flowchart-v2-circleStart" class="marker flowchart-v2" viewBox="0 0 10 10" refX="-1" refY="5" markerUnits="userSpaceOnUse" markerWidth="11" markerHeight="11" orient="auto"><circle cx="5" cy="5" r="5" class="arrowMarkerPath" style="stroke-width: 1px; stroke-dasharray: 1px, 0px;"></circle></marker><marker id="graph-97_flowchart-v2-circleEnd-margin" class="marker flowchart-v2" viewBox="0 0 10 10" refY="5" refX="12.25" markerUnits="userSpaceOnUse" markerWidth="14" markerHeight="14" orient="auto"><circle cx="5" cy="5" r="5" class="arrowMarkerPath" style="stroke-width: 0px; stroke-dasharray: 1px, 0px;"></circle></marker><marker id="graph-97_flowchart-v2-circleStart-margin" class="marker flowchart-v2" viewBox="0 0 10 10" refX="-2" refY="5" markerUnits="userSpaceOnUse" markerWidth="14" markerHeight="14" orient="auto"><circle cx="5" cy="5" r="5" class="arrowMarkerPath" style="stroke-width: 0px; stroke-dasharray: 1px, 0px;"></circle></marker><marker id="graph-97_flowchart-v2-crossEnd" class="marker cross flowchart-v2" viewBox="0 0 11 11" refX="12" refY="5.2" markerUnits="userSpaceOnUse" markerWidth="11" markerHeight="11" orient="auto"><path d="M 1,1 l 9,9 M 10,1 l -9,9" class="arrowMarkerPath" style="stroke-width: 2px; stroke-dasharray: 1px, 0px;"></path></marker><marker id="graph-97_flowchart-v2-crossStart" class="marker cross flowchart-v2" viewBox="0 0 11 11" refX="-1" refY="5.2" markerUnits="userSpaceOnUse" markerWidth="11" markerHeight="11" orient="auto"><path d="M 1,1 l 9,9 M 10,1 l -9,9" class="arrowMarkerPath" style="stroke-width: 2px; stroke-dasharray: 1px, 0px;"></path></marker><marker id="graph-97_flowchart-v2-crossEnd-margin" class="marker cross flowchart-v2" viewBox="0 0 15 15" refX="17.7" refY="7.5" markerUnits="userSpaceOnUse" markerWidth="12" markerHeight="12" orient="auto"><path d="M 1,1 L 14,14 M 1,14 L 14,1" class="arrowMarkerPath" style="stroke-width: 2.5px;"></path></marker><marker id="graph-97_flowchart-v2-crossStart-margin" class="marker cross flowchart-v2" viewBox="0 0 15 15" refX="-3.5" refY="7.5" markerUnits="userSpaceOnUse" markerWidth="12" markerHeight="12" orient="auto"><path d="M 1,1 L 14,14 M 1,14 L 14,1" class="arrowMarkerPath" style="stroke-width: 2.5px; stroke-dasharray: 1px, 0px;"></path></marker><g class="root"><g class="clusters"></g><g class="edgePaths"><path d="M1048.333,132.5L1048.252,151.417C1048.172,170.333,1048.011,208.167,1047.078,234.588C1046.144,261.009,1044.439,276.017,1043.586,283.521L1042.733,291.026" id="graph-97-L_U_UI_0" class="edge-thickness-normal edge-pattern-solid edge-thickness-normal edge-pattern-solid flowchart-link" style=";" data-edge="true" data-et="edge" data-id="L_U_UI_0" data-points="W3sieCI6MTA0OC4zNDk5OTA4NDQ3MjY2LCJ5IjoxMjguNX0seyJ4IjoxMDQ3Ljg0OTk5MDg0NDcyNjYsInkiOjI0Nn0seyJ4IjoxMDQyLjI4MTgwOTAyNjU0NDgsInkiOjI5NX1d" data-look="classic" marker-start="url(#graph-97_flowchart-v2-pointStart)" marker-end="url(#graph-97_flowchart-v2-pointEnd)"></path><path d="M1037.85,377L1037.85,386.5C1037.85,396,1037.85,415,1033.57,432.086C1029.289,449.172,1020.728,464.344,1016.448,471.93L1012.167,479.516" id="graph-97-L_UI_C_0" class="edge-thickness-normal edge-pattern-solid edge-thickness-normal edge-pattern-solid flowchart-link" style=";" data-edge="true" data-et="edge" data-id="L_UI_C_0" data-points="W3sieCI6MTAzNy44NDk5OTA4NDQ3MjY2LCJ5IjozNzN9LHsieCI6MTAzNy44NDk5OTA4NDQ3MjY2LCJ5Ijo0MzR9LHsieCI6MTAxMC4yMDE4MTI5ODI1NTkyLCJ5Ijo0ODN9XQ==" data-look="classic" marker-start="url(#graph-97_flowchart-v2-pointStart)" marker-end="url(#graph-97_flowchart-v2-pointEnd)"></path><path d="M377.675,389L377.675,396.5C377.675,404,377.675,419,348.615,438.996C319.555,458.993,261.436,483.986,232.376,496.482L203.316,508.979" id="graph-97-L_F_DB_0" class="edge-thickness-normal edge-pattern-solid edge-thickness-normal edge-pattern-solid flowchart-link" style=";" data-edge="true" data-et="edge" data-id="L_F_DB_0" data-points="W3sieCI6Mzc3LjY3NDk5NTQyMjM2MzMsInkiOjM4NX0seyJ4IjozNzcuNjc0OTk1NDIyMzYzMywieSI6NDM0fSx7IngiOjE5OS42NDE2NzAyMjcwNTA3OCwieSI6NTEwLjU1ODc3Mzg3NDExNzI2fV0=" data-look="classic" marker-start="url(#graph-97_flowchart-v2-pointStart)" marker-end="url(#graph-97_flowchart-v2-pointEnd)"></path><path d="M117.225,389L117.225,396.5C117.225,404,117.225,419,117.225,435.696C117.225,452.391,117.225,470.782,117.225,479.978L117.225,489.173" id="graph-97-L_CR_DB_0" class="edge-thickness-normal edge-pattern-solid edge-thickness-normal edge-pattern-solid flowchart-link" style=";" data-edge="true" data-et="edge" data-id="L_CR_DB_0" data-points="W3sieCI6MTE3LjIyNDk5ODQ3NDEyMTEsInkiOjM4NX0seyJ4IjoxMTcuMjI0OTk4NDc0MTIxMSwieSI6NDM0fSx7IngiOjExNy4yMjQ5OTg0NzQxMjExLCJ5Ijo0OTMuMTczMDg4MDczNzMwNDd9XQ==" data-look="classic" marker-start="url(#graph-97_flowchart-v2-pointStart)" marker-end="url(#graph-97_flowchart-v2-pointEnd)"></path><path d="M631.725,377L631.725,386.5C631.725,396,631.725,415,631.725,436C631.725,457,631.725,480,631.725,491.5L631.725,503" id="graph-97-L_S_WS_0" class="edge-thickness-normal edge-pattern-solid edge-thickness-normal edge-pattern-solid flowchart-link" style=";" data-edge="true" data-et="edge" data-id="L_S_WS_0" data-points="W3sieCI6NjMxLjcyNDk5MDg0NDcyNjYsInkiOjM3M30seyJ4Ijo2MzEuNzI0OTkwODQ0NzI2NiwieSI6NDM0fSx7IngiOjYzMS43MjQ5OTA4NDQ3MjY2LCJ5Ijo1MDd9XQ==" data-look="classic" marker-start="url(#graph-97_flowchart-v2-pointStart)" marker-end="url(#graph-97_flowchart-v2-pointEnd)"></path><path d="M899.256,483L889.482,474.833C879.709,466.667,860.161,450.333,850.387,425.5C840.613,400.667,840.613,367.333,840.613,336C840.613,304.667,840.613,275.333,826.148,254.752C811.683,234.171,782.752,222.343,768.287,216.428L753.822,210.514" id="graph-97-L_C_LOCK_0" class="edge-thickness-normal edge-pattern-solid edge-thickness-normal edge-pattern-solid flowchart-link" style=";" data-edge="true" data-et="edge" data-id="L_C_LOCK_0" data-points="W3sieCI6ODk5LjI1NjE5MTczMDQ5OTMsInkiOjQ4M30seyJ4Ijo4NDAuNjEzMzMwODQxMDY0NSwieSI6NDM0fSx7IngiOjg0MC42MTMzMzA4NDEwNjQ1LCJ5IjozMzR9LHsieCI6ODQwLjYxMzMzMDg0MTA2NDUsInkiOjI0Nn0seyJ4Ijo3NTAuMTE5NDA5MTkzNTU5MSwieSI6MjA5fV0=" data-look="classic" marker-end="url(#graph-97_flowchart-v2-pointEnd)"></path><path d="M461.77,209L459.16,215.167C456.549,221.333,451.327,233.667,444.33,245.474C437.334,257.281,428.561,268.562,424.175,274.202L419.789,279.842" id="graph-97-L_LOCK_F_0" class="edge-thickness-normal edge-pattern-solid edge-thickness-normal edge-pattern-solid flowchart-link" style=";" data-edge="true" data-et="edge" data-id="L_LOCK_F_0" data-points="W3sieCI6NDYxLjc3MDMwNTE3NTc4MTIzLCJ5IjoyMDl9LHsieCI6NDQ2LjEwNTg1MDIxOTcyNjU2LCJ5IjoyNDZ9LHsieCI6NDE3LjMzMzc4NjI3MDgzNTE2LCJ5IjoyODN9XQ==" data-look="classic" marker-end="url(#graph-97_flowchart-v2-pointEnd)"></path><path d="M657.203,209L666.584,215.167C675.965,221.333,694.726,233.667,696.973,247.512C699.22,261.357,684.952,276.713,677.818,284.391L670.684,292.07" id="graph-97-L_LOCK_S_0" class="edge-thickness-normal edge-pattern-solid edge-thickness-normal edge-pattern-solid flowchart-link" style=";" data-edge="true" data-et="edge" data-id="L_LOCK_S_0" data-points="W3sieCI6NjU3LjIwMjU5MTAxMTc0MDksInkiOjIwOX0seyJ4Ijo3MTMuNDg4MzMwODQxMDY0NSwieSI6MjQ2fSx7IngiOjY2Ny45NjEwMTY1MjQ5MjE4LCJ5IjoyOTV9XQ==" data-look="classic" marker-end="url(#graph-97_flowchart-v2-pointEnd)"></path><path d="M310.96,283L302.893,276.833C294.826,270.667,278.693,258.333,280.889,246.33C283.085,234.326,303.611,222.652,313.874,216.815L324.137,210.978" id="graph-97-L_F_MERGE_0" class="edge-thickness-normal edge-pattern-solid edge-thickness-normal edge-pattern-solid flowchart-link" style=";" data-edge="true" data-et="edge" data-id="L_F_MERGE_0" data-points="W3sieCI6MzEwLjk2MDE0NDEyOTY2NjQ1LCJ5IjoyODN9LHsieCI6MjYyLjU1OTE3MzU4Mzk4NDQsInkiOjI0Nn0seyJ4IjozMjcuNjE0MzcwNjE2NTY2LCJ5IjoyMDl9XQ==" data-look="classic" marker-end="url(#graph-97_flowchart-v2-pointEnd)"></path><path d="M603.493,295L597.581,286.833C591.669,278.667,579.845,262.333,571.357,248.605C562.868,234.876,557.715,223.753,555.138,218.191L552.561,212.629" id="graph-97-L_S_MERGE_0" class="edge-thickness-normal edge-pattern-solid edge-thickness-normal edge-pattern-solid flowchart-link" style=";" data-edge="true" data-et="edge" data-id="L_S_MERGE_0" data-points="W3sieCI6NjAzLjQ5MjgzNzg2MjUzNSwieSI6Mjk1fSx7IngiOjU2OC4wMjE2NzEyOTUxNjYsInkiOjI0Nn0seyJ4Ijo1NTAuODc5Njg3MTI1NDY2LCJ5IjoyMDl9XQ==" data-look="classic" marker-end="url(#graph-97_flowchart-v2-pointEnd)"></path><path d="M312.996,209L301.257,215.167C289.517,221.333,266.038,233.667,246.061,245.617C226.085,257.567,209.61,269.134,201.373,274.918L193.136,280.701" id="graph-97-L_MERGE_CR_0" class="edge-thickness-normal edge-pattern-solid edge-thickness-normal edge-pattern-solid flowchart-link" style=";" data-edge="true" data-et="edge" data-id="L_MERGE_CR_0" data-points="W3sieCI6MzEyLjk5NjE4ODc5ODM4NDIsInkiOjIwOX0seyJ4IjoyNDIuNTU5MTczNTgzOTg0MzgsInkiOjI0Nn0seyJ4IjoxODkuODYxODQ5OTU4MjQ2NCwieSI6MjgzfV0=" data-look="classic" marker-end="url(#graph-97_flowchart-v2-pointEnd)"></path><path d="M114.391,283L114.048,276.833C113.705,270.667,113.02,258.333,129.628,246.221C146.236,234.108,180.137,222.216,197.088,216.27L214.039,210.324" id="graph-97-L_CR_LOGI_0" class="edge-thickness-normal edge-pattern-solid edge-thickness-normal edge-pattern-solid flowchart-link" style=";" data-edge="true" data-et="edge" data-id="L_CR_LOGI_0" data-points="W3sieCI6MTE0LjM5MDU0NDAyNDM4MDc3LCJ5IjoyODN9LHsieCI6MTEyLjMzNDE3NTEwOTg2MzI4LCJ5IjoyNDZ9LHsieCI6MjE3LjgxMzU1MzU1MDAyNjY1LCJ5IjoyMDl9XQ==" data-look="classic" marker-end="url(#graph-97_flowchart-v2-pointEnd)"></path><path d="M803.619,209L821.984,215.167C840.349,221.333,877.079,233.667,906.412,247.614C935.744,261.562,957.68,277.124,968.647,284.905L979.615,292.686" id="graph-97-L_LOGI_UI_0" class="edge-thickness-normal edge-pattern-solid edge-thickness-normal edge-pattern-solid flowchart-link" style=";" data-edge="true" data-et="edge" data-id="L_LOGI_UI_0" data-points="W3sieCI6ODAzLjYxODkxMDQ5NDcxNzcsInkiOjIwOX0seyJ4Ijo5MTMuODA5MTY1OTU0NTg5OCwieSI6MjQ2fSx7IngiOjk4Mi44NzczNTI1NDExNDMzLCJ5IjoyOTV9XQ==" data-look="classic" marker-end="url(#graph-97_flowchart-v2-pointEnd)"></path></g><g class="edgeLabels"><g class="edgeLabel"><g class="label" data-id="L_U_UI_0" transform="translate(0, 0)"><foreignObject width="0" height="0"><div style="display: table-cell; white-space: nowrap; line-height: 1.5; max-width: 200px; text-align: center;" xmlns="http://www.w3.org/1999/xhtml" class="labelBkg"><span class="edgeLabel"></span></div></foreignObject></g></g><g class="edgeLabel" transform="translate(1037.8499908447266, 434)"><g class="label" data-id="L_UI_C_0" transform="translate(-100, -24)"><foreignObject width="200" height="48"><div style="display: table; white-space: break-spaces; line-height: 1.5; max-width: 200px; text-align: center; width: 200px;" xmlns="http://www.w3.org/1999/xhtml" class="labelBkg"><span class="edgeLabel"><p>대화 스트리밍 · 계약(Contract) 추출</p></span></div></foreignObject></g></g><g class="edgeLabel" transform="translate(377.6749954223633, 434)"><g class="label" data-id="L_F_DB_0" transform="translate(-80.8499984741211, -24)"><foreignObject width="161.6999969482422" height="48"><div style="display: table-cell; white-space: nowrap; line-height: 1.5; max-width: 200px; text-align: center;" xmlns="http://www.w3.org/1999/xhtml" class="labelBkg"><span class="edgeLabel"><p>search_restaurants<br/>list_areas · list_genres</p></span></div></foreignObject></g></g><g class="edgeLabel" transform="translate(117.2249984741211, 434)"><g class="label" data-id="L_CR_DB_0" transform="translate(-53.07499694824219, -12)"><foreignObject width="106.14999389648438" height="24"><div style="display: table-cell; white-space: nowrap; line-height: 1.5; max-width: 200px; text-align: center;" xmlns="http://www.w3.org/1999/xhtml" class="labelBkg"><span class="edgeLabel"><p>get_restaurant</p></span></div></foreignObject></g></g><g class="edgeLabel" transform="translate(631.7249908447266, 434)"><g class="label" data-id="L_S_WS_0" transform="translate(-42.21666717529297, -12)"><foreignObject width="84.43333435058594" height="24"><div style="display: table-cell; white-space: nowrap; line-height: 1.5; max-width: 200px; text-align: center;" xmlns="http://www.w3.org/1999/xhtml" class="labelBkg"><span class="edgeLabel"><p>web_search</p></span></div></foreignObject></g></g><g class="edgeLabel"><g class="label" data-id="L_C_LOCK_0" transform="translate(0, 0)"><foreignObject width="0" height="0"><div style="display: table-cell; white-space: nowrap; line-height: 1.5; max-width: 200px; text-align: center;" xmlns="http://www.w3.org/1999/xhtml" class="labelBkg"><span class="edgeLabel"></span></div></foreignObject></g></g><g class="edgeLabel" transform="translate(444.05214, 248.64101)"><g class="label" data-id="L_LOCK_F_0" transform="translate(-96.42500305175781, -12)"><foreignObject width="192.85000610351562" height="24"><div style="display: table-cell; white-space: nowrap; line-height: 1.5; max-width: 200px; text-align: center;" xmlns="http://www.w3.org/1999/xhtml" class="labelBkg"><span class="edgeLabel"><p>배치1: asyncio.gather 병렬</p></span></div></foreignObject></g></g><g class="edgeLabel" transform="translate(713.29117, 245.87039)"><g class="label" data-id="L_LOCK_S_0" transform="translate(-96.42500305175781, -12)"><foreignObject width="192.85000610351562" height="24"><div style="display: table-cell; white-space: nowrap; line-height: 1.5; max-width: 200px; text-align: center;" xmlns="http://www.w3.org/1999/xhtml" class="labelBkg"><span class="edgeLabel"><p>배치1: asyncio.gather 병렬</p></span></div></foreignObject></g></g><g class="edgeLabel"><g class="label" data-id="L_F_MERGE_0" transform="translate(0, 0)"><foreignObject width="0" height="0"><div style="display: table-cell; white-space: nowrap; line-height: 1.5; max-width: 200px; text-align: center;" xmlns="http://www.w3.org/1999/xhtml" class="labelBkg"><span class="edgeLabel"></span></div></foreignObject></g></g><g class="edgeLabel"><g class="label" data-id="L_S_MERGE_0" transform="translate(0, 0)"><foreignObject width="0" height="0"><div style="display: table-cell; white-space: nowrap; line-height: 1.5; max-width: 200px; text-align: center;" xmlns="http://www.w3.org/1999/xhtml" class="labelBkg"><span class="edgeLabel"></span></div></foreignObject></g></g><g class="edgeLabel"><g class="label" data-id="L_MERGE_CR_0" transform="translate(0, 0)"><foreignObject width="0" height="0"><div style="display: table-cell; white-space: nowrap; line-height: 1.5; max-width: 200px; text-align: center;" xmlns="http://www.w3.org/1999/xhtml" class="labelBkg"><span class="edgeLabel"></span></div></foreignObject></g></g><g class="edgeLabel"><g class="label" data-id="L_CR_LOGI_0" transform="translate(0, 0)"><foreignObject width="0" height="0"><div style="display: table-cell; white-space: nowrap; line-height: 1.5; max-width: 200px; text-align: center;" xmlns="http://www.w3.org/1999/xhtml" class="labelBkg"><span class="edgeLabel"></span></div></foreignObject></g></g><g class="edgeLabel"><g class="label" data-id="L_LOGI_UI_0" transform="translate(0, 0)"><foreignObject width="0" height="0"><div style="display: table-cell; white-space: nowrap; line-height: 1.5; max-width: 200px; text-align: center;" xmlns="http://www.w3.org/1999/xhtml" class="labelBkg"><span class="edgeLabel"></span></div></foreignObject></g></g></g><g class="nodes"><g class="root" transform="translate(39.151695251464844, 0)"><g class="clusters"><g class="cluster" id="graph-97-PIPE" data-look="classic"><rect style="" x="8" y="8" width="914.3333282470703" height="201"></rect><g class="cluster-label" transform="translate(357.5249938964844, 8)"><foreignObject width="215.28334045410156" height="24"><div style="display: table-cell; white-space: nowrap; line-height: 1.5;" xmlns="http://www.w3.org/1999/xhtml"><span class="nodeLabel"><p>run_pipeline() — concierge.py</p></span></div></foreignObject></g></g></g><g class="edgePaths"></g><g class="edgeLabels"></g><g class="nodes"><g class="node default" id="graph-97-flowchart-LOCK-4" data-look="classic" transform="translate(173, 108.5)"><rect class="basic label-container" style="" x="-130" y="-63" width="260" height="126"></rect><g class="label" style="" transform="translate(-100, -48)"><rect></rect><foreignObject width="200" height="96"><div style="display: table; white-space: break-spaces; line-height: 1.5; max-width: 200px; text-align: center; width: 200px;" xmlns="http://www.w3.org/1999/xhtml"><span class="nodeLabel"><p>계약 고정<br/>locked 식당은 코드가 DB 조회로 확정<br/>(LLM 불개입)</p></span></div></foreignObject></g></g><g class="node default" id="graph-97-flowchart-MERGE-5" data-look="classic" transform="translate(465.16666412353516, 108.5)"><rect class="basic label-container" style="" x="-112.16666412353516" y="-51" width="224.3333282470703" height="102"></rect><g class="label" style="" transform="translate(-82.16666412353516, -36)"><rect></rect><foreignObject width="164.3333282470703" height="72"><div style="display: table-cell; white-space: nowrap; line-height: 1.5; max-width: 200px; text-align: center;" xmlns="http://www.w3.org/1999/xhtml"><span class="nodeLabel"><p>병합 (도구 없는 LLM)<br/>후보 밖 선택·중복 교정<br/>누락 슬롯 결정론 백필</p></span></div></foreignObject></g></g><g class="node default" id="graph-97-flowchart-LOGI-6" data-look="classic" transform="translate(757.3333282470703, 108.5)"><rect class="basic label-container" style="" x="-130" y="-51" width="260" height="102"></rect><g class="label" style="" transform="translate(-100, -36)"><rect></rect><foreignObject width="200" height="72"><div style="display: table; white-space: break-spaces; line-height: 1.5; max-width: 200px; text-align: center; width: 200px;" xmlns="http://www.w3.org/1999/xhtml"><span class="nodeLabel"><p>로지스틱스 (결정론 코드)<br/>동선 NN 정렬 · 지도 URL · 딥링크</p></span></div></foreignObject></g></g></g></g><g class="node default" id="graph-97-flowchart-U-0" data-look="classic" transform="translate(1047.8499908447266, 108.5)"><g class="basic label-container outer-path"><path d="M-16.875 -19.5 C-5.721615256099218 -19.5, 5.431769487801564 -19.5, 16.875 -19.5 C16.875 -19.5, 16.875 -19.5, 16.875 -19.5 C17.178111467305143 -19.490279805214204, 17.48122293461029 -19.480559610428408, 18.1243692896239 -19.45993515863156 C18.38753906721218 -19.434547486695582, 18.65070884480046 -19.409159814759605, 19.368604652847864 -19.3399052695533 C19.706392499016037 -19.285294350168698, 20.044180345184206 -19.2306834307841, 20.60259325967676 -19.140403561325773 C20.921446926715333 -19.067627292538848, 21.240300593753908 -18.994851023751924, 21.82126438623539 -18.862249829261074 C22.141588480070283 -18.767179319626358, 22.461912573905174 -18.67210880999164, 23.019610251460602 -18.50658706670804 C23.392117509881185 -18.369500952189917, 23.764624768301765 -18.23241483767179, 24.192706595147794 -18.074876768247425 C24.48368831564639 -17.94606779224875, 24.774670036144986 -17.817258816250078, 25.33573291279238 -17.568892924097174 C25.63240112719652 -17.414121306667596, 25.92906934160066 -17.259349689238018, 26.443992264076783 -16.990714730406097 C26.699939173013405 -16.835558210097723, 26.95588608195003 -16.680401689789353, 27.512930573605693 -16.342718045390892 C27.887566257269924 -16.08138841018409, 28.262201940934155 -15.820058774977285, 28.538155344578712 -15.627565626425154 C28.765626191984502 -15.446163678872507, 28.993097039390292 -15.264761731319858, 29.51545370850187 -14.848196188198123 C29.750966966579316 -14.63430927855153, 29.98648022465676 -14.420422368904937, 30.440809736767985 -14.007812326905688 C30.741417583706177 -13.69741004457878, 31.042025430644365 -13.387007762251873, 31.310420942968648 -13.10986736009568 C31.597395322494993 -12.772770924599248, 31.884369702021342 -12.435674489102817, 32.120713908126575 -12.158051136245305 C32.30298529815087 -11.91382407887798, 32.48525668817518 -11.669597021510652, 32.868358964640635 -11.156274872382312 C33.06127612825106 -10.859902303564818, 33.25419329186148 -10.563529734747325, 33.55028387860425 -10.108655082055241 C33.680360731900855 -9.877690457317426, 33.81043758519746 -9.64672583257961, 34.163686474273504 -9.019496659696287 C34.28570383419727 -8.766125001061312, 34.407721194121045 -8.512753342426336, 34.70604614880834 -7.893275190886684 C34.86911339514551 -7.49049593974314, 35.03218064148268 -7.087716688599597, 35.175134229970325 -6.734618561215508 C35.31909999842269 -6.301016604467163, 35.46306576687506 -5.867414647718817, 35.56902313421488 -5.548287939305138 C35.66135313637203 -5.19619362500388, 35.75368313852917 -4.844099310702623, 35.88609428754556 -4.339158212148133 C35.938364874903826 -4.07075979345599, 35.99063546226209 -3.802361374763846, 36.125044776581774 -3.1121979531509023 C36.18559374777193 -2.642592089346834, 36.24614271896208 -2.172986225542766, 36.28489270250937 -1.872449005199798 C36.30941976943973 -1.4904201398673824, 36.33394683637008 -1.1083912745349667, 36.36498121591342 -0.6250057626472757 C36.36498121591342 -0.1839170133493912, 36.36498121591342 0.2571717359484933, 36.36498121591342 0.625005762647271 C36.33425792463084 1.1035458237677749, 36.303534633348264 1.5820858848882784, 36.28489270250937 1.8724490051997846 C36.22842048784164 2.3104363504625276, 36.17194827317392 2.74842369572527, 36.125044776581774 3.1121979531508885 C36.07585495089245 3.364777311792226, 36.02666512520313 3.6173566704335633, 35.88609428754556 4.339158212148129 C35.81309183206017 4.617548214378299, 35.740089376574765 4.89593821660847, 35.56902313421489 5.548287939305125 C35.431628317405774 5.962099236642949, 35.29423350059666 6.375910533980774, 35.175134229970325 6.734618561215495 C35.00707819405739 7.1497202190628535, 34.839022158144466 7.564821876910211, 34.70604614880834 7.893275190886679 C34.56400175427272 8.188233415403072, 34.421957359737085 8.483191639919466, 34.163686474273504 9.019496659696284 C34.000197970822654 9.309787052579402, 33.836709467371804 9.600077445462519, 33.55028387860425 10.108655082055236 C33.29048225682368 10.507780139613871, 33.03068063504311 10.906905197172506, 32.86835896464064 11.156274872382301 C32.58341261661377 11.538077019591979, 32.29846626858689 11.919879166801655, 32.12071390812658 12.158051136245302 C31.87972224276069 12.441133659198307, 31.638730577394796 12.724216182151313, 31.31042094296866 13.10986736009567 C30.972962190081567 13.458321228330464, 30.635503437194473 13.806775096565259, 30.44080973676799 14.007812326905684 C30.192753822889912 14.233090144689927, 29.944697909011833 14.458367962474167, 29.515453708501887 14.848196188198111 C29.3009647288812 15.01924544165415, 29.08647574926051 15.190294695110188, 28.538155344578715 15.627565626425152 C28.14885677883389 15.899123453425448, 27.75955821308906 16.170681280425743, 27.512930573605708 16.34271804539089 C27.253732459926262 16.499845465120558, 26.99453434624682 16.65697288485023, 26.443992264076787 16.990714730406093 C26.157709464412168 17.14006828361824, 25.87142666474755 17.289421836830385, 25.335732912792388 17.56889292409717 C24.978655985720174 17.726960287401344, 24.621579058647963 17.885027650705513, 24.192706595147804 18.07487676824742 C23.929892959594522 18.171594615553644, 23.66707932404124 18.268312462859868, 23.019610251460616 18.506587066708033 C22.661381345233238 18.612907525694418, 22.303152439005864 18.719227984680806, 21.821264386235413 18.86224982926107 C21.360138858820374 18.96749872176827, 20.899013331405335 19.072747614275467, 20.602593259676766 19.140403561325773 C20.163287960651132 19.21142703520876, 19.7239826616255 19.282450509091753, 19.36860465284788 19.3399052695533 C19.034380155007494 19.372147504896194, 18.70015565716711 19.404389740239086, 18.1243692896239 19.45993515863156 C17.725684761984887 19.472720195440587, 17.327000234345878 19.48550523224961, 16.875000000000004 19.5 C16.875000000000004 19.5, 16.875000000000004 19.5, 16.875 19.5 C4.114878621804689 19.5, -8.645242756390623 19.5, -16.874999999999996 19.5 C-17.372706855670287 19.484039509866278, -17.87041371134058 19.46807901973256, -18.124369289623893 19.45993515863156 C-18.411276029020932 19.432257610537764, -18.69818276841797 19.40458006244397, -19.36860465284787 19.3399052695533 C-19.792119489820557 19.27143467511817, -20.21563432679324 19.20296408068304, -20.60259325967676 19.140403561325773 C-20.888710105033333 19.07509925846004, -21.174826950389903 19.009794955594305, -21.821264386235388 18.862249829261074 C-22.201265488583797 18.749467496750558, -22.581266590932206 18.63668516424004, -23.01961025146059 18.506587066708043 C-23.48507438841524 18.335291961605417, -23.95053852536989 18.16399685650279, -24.192706595147797 18.074876768247425 C-24.437105827930285 17.96668847774027, -24.681505060712777 17.858500187233115, -25.33573291279238 17.568892924097174 C-25.616666785462083 17.422329902672125, -25.897600658131786 17.275766881247073, -26.44399226407678 16.990714730406097 C-26.733583723236546 16.815162686035134, -27.023175182396308 16.63961064166417, -27.512930573605686 16.3427180453909 C-27.734512162621606 16.188152321005784, -27.95609375163753 16.03358659662067, -28.538155344578712 15.627565626425156 C-28.899451230766303 15.339441771677864, -29.260747116953898 15.051317916930572, -29.515453708501866 14.848196188198125 C-29.81495433915552 14.576197639790925, -30.11445496980917 14.304199091383722, -30.440809736767974 14.007812326905695 C-30.732873090666 13.706232935158683, -31.024936444564027 13.404653543411673, -31.310420942968655 13.109867360095677 C-31.627635656510375 12.737248907541035, -31.944850370052094 12.364630454986395, -32.120713908126575 12.158051136245307 C-32.337140650132206 11.868059018839576, -32.553567392137836 11.578066901433845, -32.868358964640635 11.156274872382316 C-33.04599448961959 10.883379004197305, -33.22363001459854 10.610483136012293, -33.55028387860425 10.108655082055249 C-33.74652484260656 9.760209378916734, -33.94276580660888 9.41176367577822, -34.163686474273504 9.019496659696289 C-34.278082924941806 8.781949982191628, -34.39247937561011 8.544403304686968, -34.70604614880834 7.893275190886686 C-34.858683483682846 7.516258022704539, -35.01132081855736 7.1392408545223915, -35.175134229970325 6.73461856121551 C-35.283713262226684 6.407595815778803, -35.39229229448304 6.080573070342098, -35.56902313421488 5.5482879393051325 C-35.644739166744365 5.259549891734127, -35.72045519927385 4.970811844163122, -35.88609428754556 4.339158212148136 C-35.95739147654626 3.9730622152957524, -36.028688665546966 3.6069662184433695, -36.125044776581774 3.112197953150904 C-36.162185530838826 2.824141597404694, -36.19932628509588 2.5360852416584843, -36.28489270250937 1.872449005199809 C-36.309373154536516 1.4911462046117934, -36.33385360656366 1.1098434040237777, -36.36498121591342 0.6250057626472781 C-36.36498121591342 0.14262132648321574, -36.36498121591342 -0.33976310968084666, -36.36498121591342 -0.6250057626472687 C-36.336550691836436 -1.067834123852192, -36.30812016775946 -1.5106624850571153, -36.28489270250937 -1.8724490051997822 C-36.23029663929577 -2.2958852902722833, -36.17570057608218 -2.719321575344784, -36.125044776581774 -3.112197953150895 C-36.03328770501418 -3.583351122786532, -35.9415306334466 -4.054504292422169, -35.88609428754556 -4.339158212148126 C-35.78254110630678 -4.734051372444258, -35.67898792506799 -5.128944532740389, -35.56902313421489 -5.548287939305123 C-35.472166799188905 -5.840003788442088, -35.37531046416293 -6.131719637579054, -35.17513422997033 -6.734618561215485 C-35.064076431441585 -7.008933470737964, -34.95301863291283 -7.283248380260444, -34.70604614880834 -7.893275190886678 C-34.519209928819244 -8.281244599348739, -34.33237370883015 -8.669214007810801, -34.163686474273504 -9.019496659696282 C-33.97687948210468 -9.351191390551193, -33.79007248993586 -9.682886121406103, -33.55028387860425 -10.108655082055243 C-33.394224711513694 -10.348403870460332, -33.23816554442315 -10.58815265886542, -32.86835896464064 -11.156274872382308 C-32.699007884610815 -11.383189891421496, -32.52965680458099 -11.610104910460684, -32.12071390812658 -12.158051136245302 C-31.828528195157418 -12.501269100536941, -31.536342482188253 -12.844487064828579, -31.310420942968662 -13.109867360095668 C-31.113362656568995 -13.313346219589521, -30.91630437016933 -13.516825079083375, -30.440809736767996 -14.007812326905677 C-30.212023879099064 -14.21558958949852, -29.983238021430132 -14.423366852091362, -29.515453708501887 -14.848196188198107 C-29.14217355757977 -15.145877175156507, -28.76889340665765 -15.443558162114904, -28.53815534457872 -15.627565626425149 C-28.305076309936698 -15.790151471162632, -28.071997275294677 -15.952737315900116, -27.51293057360571 -16.342718045390885 C-27.26603682670977 -16.49238648566791, -27.019143079813826 -16.642054925944937, -26.44399226407679 -16.99071473040609 C-26.024503294114023 -17.20956185734016, -25.605014324151252 -17.428408984274224, -25.335732912792388 -17.56889292409717 C-24.96471531466838 -17.73313140894066, -24.593697716544366 -17.89736989378415, -24.192706595147804 -18.07487676824742 C-23.80004760861998 -18.219378904989544, -23.407388622092157 -18.363881041731663, -23.01961025146062 -18.506587066708033 C-22.73181628409145 -18.59200280556184, -22.444022316722283 -18.677418544415648, -21.821264386235413 -18.862249829261067 C-21.368710808905504 -18.96554223009854, -20.916157231575596 -19.068834630936006, -20.602593259676766 -19.140403561325773 C-20.262205464882875 -19.195434820241278, -19.92181767008898 -19.25046607915678, -19.368604652847882 -19.3399052695533 C-19.03116937882849 -19.372457244612658, -18.6937341048091 -19.405009219672017, -18.124369289623903 -19.45993515863156 C-17.710707793956356 -19.473200477654363, -17.29704629828881 -19.486465796677162, -16.875000000000007 -19.5 C-16.875000000000007 -19.5, -16.875000000000004 -19.5, -16.875 -19.5" stroke="none" stroke-width="0" fill="#ECECFF" style=""></path><path d="M-16.875 -19.5 C-5.279972902884342 -19.5, 6.315054194231315 -19.5, 16.875 -19.5 M-16.875 -19.5 C-4.732875307228504 -19.5, 7.409249385542992 -19.5, 16.875 -19.5 M16.875 -19.5 C16.875 -19.5, 16.875 -19.5, 16.875 -19.5 M16.875 -19.5 C16.875 -19.5, 16.875 -19.5, 16.875 -19.5 M16.875 -19.5 C17.17909656357154 -19.490248215094315, 17.483193127143082 -19.48049643018863, 18.1243692896239 -19.45993515863156 M16.875 -19.5 C17.130921349309567 -19.49179310044833, 17.386842698619134 -19.48358620089666, 18.1243692896239 -19.45993515863156 M18.1243692896239 -19.45993515863156 C18.622051906875978 -19.41192431509617, 19.11973452412806 -19.363913471560778, 19.368604652847864 -19.3399052695533 M18.1243692896239 -19.45993515863156 C18.46093339485073 -19.427467224177885, 18.797497500077565 -19.394999289724208, 19.368604652847864 -19.3399052695533 M19.368604652847864 -19.3399052695533 C19.777290785941094 -19.273832064963084, 20.185976919034324 -19.207758860372866, 20.60259325967676 -19.140403561325773 M19.368604652847864 -19.3399052695533 C19.76669137614998 -19.275545695338458, 20.16477809945209 -19.21118612112362, 20.60259325967676 -19.140403561325773 M20.60259325967676 -19.140403561325773 C21.03175236808901 -19.04245079535558, 21.46091147650126 -18.944498029385393, 21.82126438623539 -18.862249829261074 M20.60259325967676 -19.140403561325773 C20.952335695231284 -19.060577132693137, 21.30207813078581 -18.980750704060497, 21.82126438623539 -18.862249829261074 M21.82126438623539 -18.862249829261074 C22.100502386224203 -18.779373456614568, 22.37974038621301 -18.69649708396806, 23.019610251460602 -18.50658706670804 M21.82126438623539 -18.862249829261074 C22.27230106605278 -18.72838451023112, 22.723337745870168 -18.594519191201165, 23.019610251460602 -18.50658706670804 M23.019610251460602 -18.50658706670804 C23.42408791935361 -18.357735545972837, 23.82856558724662 -18.208884025237634, 24.192706595147794 -18.074876768247425 M23.019610251460602 -18.50658706670804 C23.29630487571303 -18.404760887246077, 23.57299949996546 -18.302934707784114, 24.192706595147794 -18.074876768247425 M24.192706595147794 -18.074876768247425 C24.646499080161856 -17.873996296407487, 25.100291565175922 -17.67311582456755, 25.33573291279238 -17.568892924097174 M24.192706595147794 -18.074876768247425 C24.486475847172414 -17.944833834731366, 24.780245099197032 -17.814790901215307, 25.33573291279238 -17.568892924097174 M25.33573291279238 -17.568892924097174 C25.715526786614078 -17.37075470339398, 26.095320660435775 -17.17261648269079, 26.443992264076783 -16.990714730406097 M25.33573291279238 -17.568892924097174 C25.6571805798457 -17.401193882092514, 25.97862824689902 -17.233494840087854, 26.443992264076783 -16.990714730406097 M26.443992264076783 -16.990714730406097 C26.67577079563532 -16.850209222493472, 26.907549327193856 -16.709703714580844, 27.512930573605693 -16.342718045390892 M26.443992264076783 -16.990714730406097 C26.690195423007168 -16.841464928612137, 26.936398581937553 -16.692215126818176, 27.512930573605693 -16.342718045390892 M27.512930573605693 -16.342718045390892 C27.752361311906128 -16.17570152714212, 27.991792050206563 -16.008685008893348, 28.538155344578712 -15.627565626425154 M27.512930573605693 -16.342718045390892 C27.84171319332921 -16.113373522641986, 28.17049581305272 -15.88402899989308, 28.538155344578712 -15.627565626425154 M28.538155344578712 -15.627565626425154 C28.797577564908828 -15.420683309227098, 29.056999785238943 -15.213800992029043, 29.51545370850187 -14.848196188198123 M28.538155344578712 -15.627565626425154 C28.79923492343312 -15.419361609908139, 29.06031450228753 -15.211157593391123, 29.51545370850187 -14.848196188198123 M29.51545370850187 -14.848196188198123 C29.826090751440166 -14.56608384480733, 30.136727794378466 -14.283971501416538, 30.440809736767985 -14.007812326905688 M29.51545370850187 -14.848196188198123 C29.86601457808284 -14.529826081777024, 30.21657544766381 -14.211455975355923, 30.440809736767985 -14.007812326905688 M30.440809736767985 -14.007812326905688 C30.776401287994357 -13.661286497685694, 31.11199283922073 -13.3147606684657, 31.310420942968648 -13.10986736009568 M30.440809736767985 -14.007812326905688 C30.758490581929678 -13.679780772193789, 31.076171427091374 -13.351749217481892, 31.310420942968648 -13.10986736009568 M31.310420942968648 -13.10986736009568 C31.57237155994902 -12.802165259978178, 31.83432217692939 -12.494463159860675, 32.120713908126575 -12.158051136245305 M31.310420942968648 -13.10986736009568 C31.547125349638915 -12.83182089515849, 31.783829756309178 -12.553774430221301, 32.120713908126575 -12.158051136245305 M32.120713908126575 -12.158051136245305 C32.36205585778311 -11.834674910409476, 32.60339780743964 -11.511298684573644, 32.868358964640635 -11.156274872382312 M32.120713908126575 -12.158051136245305 C32.39604877882309 -11.789127493034709, 32.67138364951961 -11.42020384982411, 32.868358964640635 -11.156274872382312 M32.868358964640635 -11.156274872382312 C33.099292464021254 -10.801499003006278, 33.330225963401865 -10.446723133630245, 33.55028387860425 -10.108655082055241 M32.868358964640635 -11.156274872382312 C33.008561178400015 -10.940886622482077, 33.14876339215939 -10.725498372581843, 33.55028387860425 -10.108655082055241 M33.55028387860425 -10.108655082055241 C33.791488611510744 -9.680371654152038, 34.03269334441724 -9.252088226248835, 34.163686474273504 -9.019496659696287 M33.55028387860425 -10.108655082055241 C33.70314847360224 -9.83722851441755, 33.85601306860024 -9.565801946779859, 34.163686474273504 -9.019496659696287 M34.163686474273504 -9.019496659696287 C34.297121989828746 -8.74241495658316, 34.430557505383995 -8.465333253470032, 34.70604614880834 -7.893275190886684 M34.163686474273504 -9.019496659696287 C34.28212181024361 -8.773563150444124, 34.40055714621372 -8.52762964119196, 34.70604614880834 -7.893275190886684 M34.70604614880834 -7.893275190886684 C34.83216661236656 -7.58175520752461, 34.95828707592477 -7.270235224162536, 35.175134229970325 -6.734618561215508 M34.70604614880834 -7.893275190886684 C34.85172914963802 -7.533435362248174, 34.997412150467696 -7.173595533609663, 35.175134229970325 -6.734618561215508 M35.175134229970325 -6.734618561215508 C35.32740543065614 -6.276001965870938, 35.47967663134195 -5.8173853705263685, 35.56902313421488 -5.548287939305138 M35.175134229970325 -6.734618561215508 C35.288418241459325 -6.3934251679667184, 35.401702252948326 -6.05223177471793, 35.56902313421488 -5.548287939305138 M35.56902313421488 -5.548287939305138 C35.69056108544715 -5.084811056375231, 35.81209903667942 -4.621334173445324, 35.88609428754556 -4.339158212148133 M35.56902313421488 -5.548287939305138 C35.66392724074854 -5.1863774493923405, 35.7588313472822 -4.824466959479542, 35.88609428754556 -4.339158212148133 M35.88609428754556 -4.339158212148133 C35.965722894359814 -3.930282145668962, 36.04535150117406 -3.5214060791897905, 36.125044776581774 -3.1121979531509023 M35.88609428754556 -4.339158212148133 C35.97608027256535 -3.877099197616178, 36.06606625758514 -3.4150401830842227, 36.125044776581774 -3.1121979531509023 M36.125044776581774 -3.1121979531509023 C36.174028913116565 -2.732286663198915, 36.22301304965136 -2.352375373246928, 36.28489270250937 -1.872449005199798 M36.125044776581774 -3.1121979531509023 C36.166013223329024 -2.794454770314101, 36.206981670076274 -2.4767115874772996, 36.28489270250937 -1.872449005199798 M36.28489270250937 -1.872449005199798 C36.3166941278019 -1.3771161366200522, 36.348495553094445 -0.8817832680403066, 36.36498121591342 -0.6250057626472757 M36.28489270250937 -1.872449005199798 C36.3091710330664 -1.4942944096583402, 36.33344936362343 -1.1161398141168823, 36.36498121591342 -0.6250057626472757 M36.36498121591342 -0.6250057626472757 C36.36498121591342 -0.35663975524273683, 36.36498121591342 -0.08827374783819797, 36.36498121591342 0.625005762647271 M36.36498121591342 -0.6250057626472757 C36.36498121591342 -0.2335687691098865, 36.36498121591342 0.1578682244275027, 36.36498121591342 0.625005762647271 M36.36498121591342 0.625005762647271 C36.341588386731964 0.9893679595003053, 36.3181955575505 1.3537301563533395, 36.28489270250937 1.8724490051997846 M36.36498121591342 0.625005762647271 C36.33501263210121 1.091790645727795, 36.30504404828901 1.5585755288083192, 36.28489270250937 1.8724490051997846 M36.28489270250937 1.8724490051997846 C36.242090227487886 2.204416549161702, 36.1992877524664 2.536384093123619, 36.125044776581774 3.1121979531508885 M36.28489270250937 1.8724490051997846 C36.24868600656249 2.1532609891429626, 36.212479310615606 2.43407297308614, 36.125044776581774 3.1121979531508885 M36.125044776581774 3.1121979531508885 C36.04463484974129 3.5250859328327193, 35.96422492290081 3.9379739125145496, 35.88609428754556 4.339158212148129 M36.125044776581774 3.1121979531508885 C36.063484642941425 3.42829622865524, 36.00192450930108 3.744394504159592, 35.88609428754556 4.339158212148129 M35.88609428754556 4.339158212148129 C35.818271517609695 4.59779582848803, 35.75044874767382 4.856433444827931, 35.56902313421489 5.548287939305125 M35.88609428754556 4.339158212148129 C35.80441270510075 4.6506454870319525, 35.722731122655944 4.962132761915776, 35.56902313421489 5.548287939305125 M35.56902313421489 5.548287939305125 C35.411792304835 6.02184214606672, 35.25456147545511 6.495396352828314, 35.175134229970325 6.734618561215495 M35.56902313421489 5.548287939305125 C35.48809935172777 5.792017478702549, 35.40717556924065 6.035747018099973, 35.175134229970325 6.734618561215495 M35.175134229970325 6.734618561215495 C35.0546384444455 7.032245481089341, 34.93414265892068 7.329872400963188, 34.70604614880834 7.893275190886679 M35.175134229970325 6.734618561215495 C35.01886919652638 7.120596215000924, 34.862604163082445 7.506573868786352, 34.70604614880834 7.893275190886679 M34.70604614880834 7.893275190886679 C34.523157200328036 8.273048005602645, 34.34026825184774 8.652820820318611, 34.163686474273504 9.019496659696284 M34.70604614880834 7.893275190886679 C34.54576927624014 8.22609354615026, 34.385492403671925 8.55891190141384, 34.163686474273504 9.019496659696284 M34.163686474273504 9.019496659696284 C33.934957513315396 9.425628091196224, 33.70622855235729 9.831759522696164, 33.55028387860425 10.108655082055236 M34.163686474273504 9.019496659696284 C33.94305519871069 9.411249830797319, 33.72242392314788 9.803003001898354, 33.55028387860425 10.108655082055236 M33.55028387860425 10.108655082055236 C33.30620018621957 10.483633179206768, 33.062116493834885 10.8586112763583, 32.86835896464064 11.156274872382301 M33.55028387860425 10.108655082055236 C33.28940504046177 10.509435033218852, 33.0285262023193 10.910214984382465, 32.86835896464064 11.156274872382301 M32.86835896464064 11.156274872382301 C32.6421199604878 11.459414527149828, 32.41588095633496 11.762554181917357, 32.12071390812658 12.158051136245302 M32.86835896464064 11.156274872382301 C32.67909272414592 11.40987439213601, 32.4898264836512 11.663473911889717, 32.12071390812658 12.158051136245302 M32.12071390812658 12.158051136245302 C31.80988867303265 12.52316414384355, 31.499063437938712 12.888277151441798, 31.31042094296866 13.10986736009567 M32.12071390812658 12.158051136245302 C31.91155039534028 12.403746500105127, 31.702386882553984 12.649441863964954, 31.31042094296866 13.10986736009567 M31.31042094296866 13.10986736009567 C31.128743352583776 13.297464388175632, 30.947065762198896 13.485061416255594, 30.44080973676799 14.007812326905684 M31.31042094296866 13.10986736009567 C30.978744626697218 13.45235038777793, 30.647068310425773 13.79483341546019, 30.44080973676799 14.007812326905684 M30.44080973676799 14.007812326905684 C30.117664046520414 14.301284692822092, 29.794518356272842 14.5947570587385, 29.515453708501887 14.848196188198111 M30.44080973676799 14.007812326905684 C30.150969446315987 14.271037609940343, 29.861129155863985 14.534262892975002, 29.515453708501887 14.848196188198111 M29.515453708501887 14.848196188198111 C29.30757733459082 15.013972064569556, 29.099700960679755 15.179747940941, 28.538155344578715 15.627565626425152 M29.515453708501887 14.848196188198111 C29.178594483016788 15.116832456322015, 28.84173525753169 15.385468724445921, 28.538155344578715 15.627565626425152 M28.538155344578715 15.627565626425152 C28.24493994669269 15.832099994900446, 27.951724548806663 16.03663436337574, 27.512930573605708 16.34271804539089 M28.538155344578715 15.627565626425152 C28.259148981574945 15.822188387265792, 27.980142618571172 16.01681114810643, 27.512930573605708 16.34271804539089 M27.512930573605708 16.34271804539089 C27.27601670435729 16.486336625189715, 27.039102835108867 16.62995520498854, 26.443992264076787 16.990714730406093 M27.512930573605708 16.34271804539089 C27.254222196283234 16.499548584062953, 26.99551381896076 16.656379122735018, 26.443992264076787 16.990714730406093 M26.443992264076787 16.990714730406093 C26.096230466400435 17.172141837501783, 25.748468668724083 17.353568944597473, 25.335732912792388 17.56889292409717 M26.443992264076787 16.990714730406093 C26.073499992894575 17.184000310970227, 25.703007721712364 17.37728589153436, 25.335732912792388 17.56889292409717 M25.335732912792388 17.56889292409717 C25.01436587115883 17.711152580413764, 24.692998829525276 17.853412236730357, 24.192706595147804 18.07487676824742 M25.335732912792388 17.56889292409717 C25.03253987929501 17.703107486124676, 24.729346845797625 17.83732204815218, 24.192706595147804 18.07487676824742 M24.192706595147804 18.07487676824742 C23.732051469330134 18.244402112797626, 23.271396343512464 18.41392745734783, 23.019610251460616 18.506587066708033 M24.192706595147804 18.07487676824742 C23.74028017852667 18.241373871747946, 23.287853761905538 18.40787097524847, 23.019610251460616 18.506587066708033 M23.019610251460616 18.506587066708033 C22.719739977762536 18.595586989890435, 22.419869704064457 18.68458691307284, 21.821264386235413 18.86224982926107 M23.019610251460616 18.506587066708033 C22.58123253108298 18.636695273024507, 22.142854810705337 18.766803479340982, 21.821264386235413 18.86224982926107 M21.821264386235413 18.86224982926107 C21.546858358607636 18.924881214400433, 21.272452330979863 18.987512599539794, 20.602593259676766 19.140403561325773 M21.821264386235413 18.86224982926107 C21.514184880282745 18.932338722613718, 21.207105374330077 19.002427615966365, 20.602593259676766 19.140403561325773 M20.602593259676766 19.140403561325773 C20.273677234906575 19.193580153428748, 19.944761210136384 19.246756745531727, 19.36860465284788 19.3399052695533 M20.602593259676766 19.140403561325773 C20.30583334580312 19.18838140279336, 20.009073431929476 19.23635924426095, 19.36860465284788 19.3399052695533 M19.36860465284788 19.3399052695533 C18.949414622797825 19.380344027602458, 18.530224592747768 19.420782785651614, 18.1243692896239 19.45993515863156 M19.36860465284788 19.3399052695533 C18.884498212900237 19.386606435591872, 18.40039177295259 19.433307601630446, 18.1243692896239 19.45993515863156 M18.1243692896239 19.45993515863156 C17.781644068833003 19.47092568938815, 17.438918848042103 19.48191622014474, 16.875000000000004 19.5 M18.1243692896239 19.45993515863156 C17.746044289372115 19.472067305024694, 17.36771928912033 19.484199451417826, 16.875000000000004 19.5 M16.875000000000004 19.5 C16.875000000000004 19.5, 16.875 19.5, 16.875 19.5 M16.875000000000004 19.5 C16.875000000000004 19.5, 16.875 19.5, 16.875 19.5 M16.875 19.5 C6.956911615862568 19.5, -2.961176768274864 19.5, -16.874999999999996 19.5 M16.875 19.5 C4.7526740519369035 19.5, -7.369651896126193 19.5, -16.874999999999996 19.5 M-16.874999999999996 19.5 C-17.173856970015486 19.490416238661407, -17.47271394003097 19.480832477322814, -18.124369289623893 19.45993515863156 M-16.874999999999996 19.5 C-17.14788391439989 19.491249144001515, -17.420767828799786 19.482498288003026, -18.124369289623893 19.45993515863156 M-18.124369289623893 19.45993515863156 C-18.417962436248345 19.431612580874116, -18.711555582872798 19.403290003116673, -19.36860465284787 19.3399052695533 M-18.124369289623893 19.45993515863156 C-18.61002099196453 19.413084922988386, -19.095672694305165 19.36623468734521, -19.36860465284787 19.3399052695533 M-19.36860465284787 19.3399052695533 C-19.807681872847347 19.26891866971848, -20.24675909284682 19.19793206988366, -20.60259325967676 19.140403561325773 M-19.36860465284787 19.3399052695533 C-19.76330235646221 19.27609360575934, -20.158000060076546 19.21228194196538, -20.60259325967676 19.140403561325773 M-20.60259325967676 19.140403561325773 C-20.94625603628231 19.061964775174758, -21.28991881288786 18.98352598902374, -21.821264386235388 18.862249829261074 M-20.60259325967676 19.140403561325773 C-21.073632739294116 19.032891873922978, -21.544672218911476 18.925380186520186, -21.821264386235388 18.862249829261074 M-21.821264386235388 18.862249829261074 C-22.16462842743397 18.760341184187965, -22.50799246863256 18.65843253911486, -23.01961025146059 18.506587066708043 M-21.821264386235388 18.862249829261074 C-22.086791590278796 18.783442748881725, -22.352318794322205 18.70463566850238, -23.01961025146059 18.506587066708043 M-23.01961025146059 18.506587066708043 C-23.417959279781847 18.359990941987768, -23.816308308103103 18.213394817267496, -24.192706595147797 18.074876768247425 M-23.01961025146059 18.506587066708043 C-23.313314052182193 18.398501353074323, -23.607017852903798 18.2904156394406, -24.192706595147797 18.074876768247425 M-24.192706595147797 18.074876768247425 C-24.637155384645638 17.87813247324164, -25.081604174143482 17.681388178235853, -25.33573291279238 17.568892924097174 M-24.192706595147797 18.074876768247425 C-24.457092875042836 17.95784080487823, -24.721479154937875 17.840804841509037, -25.33573291279238 17.568892924097174 M-25.33573291279238 17.568892924097174 C-25.725914690564686 17.36533534055672, -26.11609646833699 17.161777757016264, -26.44399226407678 16.990714730406097 M-25.33573291279238 17.568892924097174 C-25.684495293898056 17.38694381326731, -26.03325767500373 17.204994702437446, -26.44399226407678 16.990714730406097 M-26.44399226407678 16.990714730406097 C-26.718112495548013 16.824541435178947, -26.992232727019246 16.658368139951797, -27.512930573605686 16.3427180453909 M-26.44399226407678 16.990714730406097 C-26.8646527692744 16.735707860079774, -27.28531327447202 16.48070098975345, -27.512930573605686 16.3427180453909 M-27.512930573605686 16.3427180453909 C-27.893948752648107 16.07693625770204, -28.274966931690532 15.811154470013182, -28.538155344578712 15.627565626425156 M-27.512930573605686 16.3427180453909 C-27.7800794783274 16.156366534146727, -28.047228383049116 15.970015022902555, -28.538155344578712 15.627565626425156 M-28.538155344578712 15.627565626425156 C-28.87033825887901 15.362658592029264, -29.202521173179306 15.097751557633371, -29.515453708501866 14.848196188198125 M-28.538155344578712 15.627565626425156 C-28.88481271412726 15.351115599150214, -29.23147008367581 15.074665571875272, -29.515453708501866 14.848196188198125 M-29.515453708501866 14.848196188198125 C-29.81308982185844 14.577890945067706, -30.110725935215015 14.307585701937285, -30.440809736767974 14.007812326905695 M-29.515453708501866 14.848196188198125 C-29.87757475121745 14.51932743840159, -30.239695793933034 14.190458688605052, -30.440809736767974 14.007812326905695 M-30.440809736767974 14.007812326905695 C-30.74223671110604 13.696564228286807, -31.04366368544411 13.385316129667919, -31.310420942968655 13.109867360095677 M-30.440809736767974 14.007812326905695 C-30.688663169544746 13.751883308418408, -30.936516602321515 13.49595428993112, -31.310420942968655 13.109867360095677 M-31.310420942968655 13.109867360095677 C-31.474255412042144 12.917418070276574, -31.63808988111563 12.72496878045747, -32.120713908126575 12.158051136245307 M-31.310420942968655 13.109867360095677 C-31.57801900395581 12.795531450899137, -31.845617064942964 12.481195541702599, -32.120713908126575 12.158051136245307 M-32.120713908126575 12.158051136245307 C-32.346211341572456 11.855905118666628, -32.57170877501834 11.553759101087948, -32.868358964640635 11.156274872382316 M-32.120713908126575 12.158051136245307 C-32.36572055693433 11.829764547407807, -32.61072720574207 11.501477958570307, -32.868358964640635 11.156274872382316 M-32.868358964640635 11.156274872382316 C-33.10954565817709 10.785747343414771, -33.35073235171355 10.415219814447227, -33.55028387860425 10.108655082055249 M-32.868358964640635 11.156274872382316 C-33.031868764218 10.905079911702533, -33.19537856379535 10.653884951022748, -33.55028387860425 10.108655082055249 M-33.55028387860425 10.108655082055249 C-33.74373461447575 9.765163711504233, -33.93718535034725 9.421672340953217, -34.163686474273504 9.019496659696289 M-33.55028387860425 10.108655082055249 C-33.77146830519056 9.715919735299375, -33.99265273177687 9.323184388543503, -34.163686474273504 9.019496659696289 M-34.163686474273504 9.019496659696289 C-34.32462469370833 8.685305003513612, -34.48556291314316 8.351113347330934, -34.70604614880834 7.893275190886686 M-34.163686474273504 9.019496659696289 C-34.320178400745085 8.694537825987217, -34.476670327216674 8.369578992278145, -34.70604614880834 7.893275190886686 M-34.70604614880834 7.893275190886686 C-34.835960220048065 7.57238492320687, -34.96587429128779 7.251494655527053, -35.175134229970325 6.73461856121551 M-34.70604614880834 7.893275190886686 C-34.816975393862286 7.619277810932388, -34.92790463891623 7.34528043097809, -35.175134229970325 6.73461856121551 M-35.175134229970325 6.73461856121551 C-35.28176825511477 6.4134538673050905, -35.38840228025921 6.09228917339467, -35.56902313421488 5.5482879393051325 M-35.175134229970325 6.73461856121551 C-35.26864381616241 6.4529825863342305, -35.36215340235449 6.171346611452951, -35.56902313421488 5.5482879393051325 M-35.56902313421488 5.5482879393051325 C-35.66605993303691 5.178244569382087, -35.763096731858944 4.808201199459041, -35.88609428754556 4.339158212148136 M-35.56902313421488 5.5482879393051325 C-35.65583562877454 5.217234272776018, -35.74264812333419 4.886180606246904, -35.88609428754556 4.339158212148136 M-35.88609428754556 4.339158212148136 C-35.96580563692374 3.929857280090836, -36.04551698630192 3.520556348033536, -36.125044776581774 3.112197953150904 M-35.88609428754556 4.339158212148136 C-35.96019408532991 3.95867141152331, -36.03429388311426 3.5781846108984845, -36.125044776581774 3.112197953150904 M-36.125044776581774 3.112197953150904 C-36.17866226594505 2.6963512936202156, -36.232279755308326 2.280504634089527, -36.28489270250937 1.872449005199809 M-36.125044776581774 3.112197953150904 C-36.169681475123646 2.7660045337732484, -36.214318173665525 2.419811114395593, -36.28489270250937 1.872449005199809 M-36.28489270250937 1.872449005199809 C-36.31590448590112 1.3894154466122, -36.34691626929288 0.9063818880245907, -36.36498121591342 0.6250057626472781 M-36.28489270250937 1.872449005199809 C-36.302311943755896 1.6011302622266508, -36.319731185002425 1.3298115192534925, -36.36498121591342 0.6250057626472781 M-36.36498121591342 0.6250057626472781 C-36.36498121591342 0.2568597677766825, -36.36498121591342 -0.11128622709391311, -36.36498121591342 -0.6250057626472687 M-36.36498121591342 0.6250057626472781 C-36.36498121591342 0.27556090447502407, -36.36498121591342 -0.07388395369723, -36.36498121591342 -0.6250057626472687 M-36.36498121591342 -0.6250057626472687 C-36.335379188832526 -1.0860812287583252, -36.305777161751635 -1.5471566948693818, -36.28489270250937 -1.8724490051997822 M-36.36498121591342 -0.6250057626472687 C-36.33651852805388 -1.068335100727682, -36.30805584019434 -1.5116644388080955, -36.28489270250937 -1.8724490051997822 M-36.28489270250937 -1.8724490051997822 C-36.230321006877915 -2.295696300117103, -36.17574931124647 -2.7189435950344243, -36.125044776581774 -3.112197953150895 M-36.28489270250937 -1.8724490051997822 C-36.252796353725074 -2.1213819482298053, -36.22070000494078 -2.370314891259828, -36.125044776581774 -3.112197953150895 M-36.125044776581774 -3.112197953150895 C-36.06400080385707 -3.4256458514440533, -36.002956831132366 -3.7390937497372114, -35.88609428754556 -4.339158212148126 M-36.125044776581774 -3.112197953150895 C-36.06652284163333 -3.4126957204958277, -36.008000906684885 -3.7131934878407606, -35.88609428754556 -4.339158212148126 M-35.88609428754556 -4.339158212148126 C-35.771735645163055 -4.775257278901752, -35.65737700278055 -5.211356345655379, -35.56902313421489 -5.548287939305123 M-35.88609428754556 -4.339158212148126 C-35.80431676207182 -4.651011359383247, -35.722539236598074 -4.962864506618369, -35.56902313421489 -5.548287939305123 M-35.56902313421489 -5.548287939305123 C-35.48259346138547 -5.808600343169062, -35.39616378855605 -6.068912747033002, -35.17513422997033 -6.734618561215485 M-35.56902313421489 -5.548287939305123 C-35.46116916802783 -5.873126901264694, -35.353315201840765 -6.197965863224265, -35.17513422997033 -6.734618561215485 M-35.17513422997033 -6.734618561215485 C-35.02174764386265 -7.11348639442935, -34.868361057754974 -7.492354227643214, -34.70604614880834 -7.893275190886678 M-35.17513422997033 -6.734618561215485 C-35.04928290093398 -7.045473777105182, -34.92343157189764 -7.35632899299488, -34.70604614880834 -7.893275190886678 M-34.70604614880834 -7.893275190886678 C-34.531388931016956 -8.255954640696286, -34.35673171322557 -8.618634090505893, -34.163686474273504 -9.019496659696282 M-34.70604614880834 -7.893275190886678 C-34.51458787677662 -8.290842389311305, -34.32312960474491 -8.68840958773593, -34.163686474273504 -9.019496659696282 M-34.163686474273504 -9.019496659696282 C-33.99872197436947 -9.31240783374289, -33.83375747446542 -9.6053190077895, -33.55028387860425 -10.108655082055243 M-34.163686474273504 -9.019496659696282 C-33.97829482335425 -9.348678308843752, -33.79290317243498 -9.67785995799122, -33.55028387860425 -10.108655082055243 M-33.55028387860425 -10.108655082055243 C-33.39888205818807 -10.341248935295797, -33.2474802377719 -10.57384278853635, -32.86835896464064 -11.156274872382308 M-33.55028387860425 -10.108655082055243 C-33.412243861320306 -10.32072161753816, -33.274203844036364 -10.532788153021077, -32.86835896464064 -11.156274872382308 M-32.86835896464064 -11.156274872382308 C-32.68403478188234 -11.403252484999935, -32.499710599124036 -11.650230097617563, -32.12071390812658 -12.158051136245302 M-32.86835896464064 -11.156274872382308 C-32.69236904779698 -11.392085327941562, -32.51637913095332 -11.627895783500813, -32.12071390812658 -12.158051136245302 M-32.12071390812658 -12.158051136245302 C-31.81122463440985 -12.521594847591532, -31.501735360693118 -12.885138558937761, -31.310420942968662 -13.109867360095668 M-32.12071390812658 -12.158051136245302 C-31.827156884013366 -12.502879920636557, -31.533599859900153 -12.847708705027811, -31.310420942968662 -13.109867360095668 M-31.310420942968662 -13.109867360095668 C-31.104095841878028 -13.322914966577583, -30.89777074078739 -13.535962573059496, -30.440809736767996 -14.007812326905677 M-31.310420942968662 -13.109867360095668 C-31.007473410867163 -13.422685559445416, -30.704525878765665 -13.735503758795163, -30.440809736767996 -14.007812326905677 M-30.440809736767996 -14.007812326905677 C-30.144682248624257 -14.276747476533835, -29.848554760480518 -14.545682626161993, -29.515453708501887 -14.848196188198107 M-30.440809736767996 -14.007812326905677 C-30.193422613896253 -14.232482766393204, -29.946035491024514 -14.457153205880731, -29.515453708501887 -14.848196188198107 M-29.515453708501887 -14.848196188198107 C-29.190863932203925 -15.107047897099026, -28.866274155905963 -15.365899605999944, -28.53815534457872 -15.627565626425149 M-29.515453708501887 -14.848196188198107 C-29.157660510814157 -15.133526742077214, -28.79986731312643 -15.41885729595632, -28.53815534457872 -15.627565626425149 M-28.53815534457872 -15.627565626425149 C-28.31591504022714 -15.782590842113095, -28.093674735875556 -15.937616057801039, -27.51293057360571 -16.342718045390885 M-28.53815534457872 -15.627565626425149 C-28.163641585482964 -15.888810212331016, -27.789127826387208 -16.15005479823688, -27.51293057360571 -16.342718045390885 M-27.51293057360571 -16.342718045390885 C-27.271182720956077 -16.48926701433517, -27.02943486830644 -16.63581598327945, -26.44399226407679 -16.99071473040609 M-27.51293057360571 -16.342718045390885 C-27.218615376204564 -16.52113364764354, -26.924300178803414 -16.6995492498962, -26.44399226407679 -16.99071473040609 M-26.44399226407679 -16.99071473040609 C-26.122595010541858 -17.158387471710498, -25.801197757006925 -17.326060213014905, -25.335732912792388 -17.56889292409717 M-26.44399226407679 -16.99071473040609 C-26.18461716667775 -17.12603055258149, -25.92524206927871 -17.26134637475689, -25.335732912792388 -17.56889292409717 M-25.335732912792388 -17.56889292409717 C-24.899218883065394 -17.762124736328687, -24.462704853338405 -17.955356548560204, -24.192706595147804 -18.07487676824742 M-25.335732912792388 -17.56889292409717 C-24.984222486950625 -17.724496162431016, -24.63271206110886 -17.88009940076486, -24.192706595147804 -18.07487676824742 M-24.192706595147804 -18.07487676824742 C-23.95549013300127 -18.162174619122283, -23.718273670854735 -18.249472469997148, -23.01961025146062 -18.506587066708033 M-24.192706595147804 -18.07487676824742 C-23.72912883011876 -18.245477671043993, -23.265551065089717 -18.416078573840565, -23.01961025146062 -18.506587066708033 M-23.01961025146062 -18.506587066708033 C-22.733227360499136 -18.59158400549093, -22.446844469537655 -18.676580944273827, -21.821264386235413 -18.862249829261067 M-23.01961025146062 -18.506587066708033 C-22.73993468855532 -18.589593305731338, -22.46025912565002 -18.672599544754643, -21.821264386235413 -18.862249829261067 M-21.821264386235413 -18.862249829261067 C-21.4155150518688 -18.954859467068395, -21.00976571750218 -19.047469104875724, -20.602593259676766 -19.140403561325773 M-21.821264386235413 -18.862249829261067 C-21.520602308458383 -18.930873986510257, -21.219940230681356 -18.99949814375945, -20.602593259676766 -19.140403561325773 M-20.602593259676766 -19.140403561325773 C-20.164266823536384 -19.21126878024867, -19.725940387395998 -19.282133999171567, -19.368604652847882 -19.3399052695533 M-20.602593259676766 -19.140403561325773 C-20.144181796130344 -19.214515971717965, -19.685770332583918 -19.288628382110158, -19.368604652847882 -19.3399052695533 M-19.368604652847882 -19.3399052695533 C-18.921429565494922 -19.38304371242351, -18.474254478141965 -19.426182155293727, -18.124369289623903 -19.45993515863156 M-19.368604652847882 -19.3399052695533 C-19.058293551535623 -19.36984060829319, -18.747982450223365 -19.399775947033085, -18.124369289623903 -19.45993515863156 M-18.124369289623903 -19.45993515863156 C-17.72367061481981 -19.47278478521987, -17.322971940015716 -19.48563441180818, -16.875000000000007 -19.5 M-18.124369289623903 -19.45993515863156 C-17.816781777244284 -19.469798891470802, -17.509194264864668 -19.47966262431004, -16.875000000000007 -19.5 M-16.875000000000007 -19.5 C-16.875000000000004 -19.5, -16.875000000000004 -19.5, -16.875 -19.5 M-16.875000000000007 -19.5 C-16.875000000000004 -19.5, -16.875000000000004 -19.5, -16.875 -19.5" stroke="#9370DB" stroke-width="1.3" fill="none" stroke-dasharray="0 0" style=""></path></g><g class="label" style="" transform="translate(-24, -12)"><rect></rect><foreignObject width="48" height="24"><div style="display: table-cell; white-space: nowrap; line-height: 1.5; max-width: 200px; text-align: center;" xmlns="http://www.w3.org/1999/xhtml"><span class="nodeLabel"><p>사용자</p></span></div></foreignObject></g></g><g class="node default" id="graph-97-flowchart-UI-1" data-look="classic" transform="translate(1037.8499908447266, 334)"><rect class="basic label-container" style="" x="-91.39167022705078" y="-39" width="182.78334045410156" height="78"></rect><g class="label" style="" transform="translate(-61.39167022705078, -24)"><rect></rect><foreignObject width="122.78334045410156" height="48"><div style="display: table-cell; white-space: nowrap; line-height: 1.5; max-width: 200px; text-align: center;" xmlns="http://www.w3.org/1999/xhtml"><span class="nodeLabel"><p>Streamlit 채팅 UI<br/>(ui.py)</p></span></div></foreignObject></g></g><g class="node default" id="graph-97-flowchart-C-3" data-look="classic" transform="translate(974.6541557312012, 546)"><rect class="basic label-container" style="" x="-130" y="-63" width="260" height="126"></rect><g class="label" style="" transform="translate(-100, -48)"><rect></rect><foreignObject width="200" height="96"><div style="display: table; white-space: break-spaces; line-height: 1.5; max-width: 200px; text-align: center; width: 200px;" xmlns="http://www.w3.org/1999/xhtml"><span class="nodeLabel"><p>🎩 @concierge<br/>대화·계약·병합 지휘<br/>(도구 없는 순수 LLM + 결정론 파이프라인)</p></span></div></foreignObject></g></g><g class="node default" id="graph-97-flowchart-F-10" data-look="classic" transform="translate(377.6749954223633, 334)"><rect class="basic label-container" style="" x="-101.2249984741211" y="-51" width="202.4499969482422" height="102"></rect><g class="label" style="" transform="translate(-71.2249984741211, -36)"><rect></rect><foreignObject width="142.4499969482422" height="72"><div style="display: table-cell; white-space: nowrap; line-height: 1.5; max-width: 200px; text-align: center;" xmlns="http://www.w3.org/1999/xhtml"><span class="nodeLabel"><p>🍜 @foodie<br/>열린 슬롯 식당 후보<br/>(슬롯당 2곳)</p></span></div></foreignObject></g></g><g class="node default" id="graph-97-flowchart-S-12" data-look="classic" transform="translate(631.7249908447266, 334)"><rect class="basic label-container" style="" x="-102.82499694824219" y="-39" width="205.64999389648438" height="78"></rect><g class="label" style="" transform="translate(-72.82499694824219, -24)"><rect></rect><foreignObject width="145.64999389648438" height="48"><div style="display: table-cell; white-space: nowrap; line-height: 1.5; max-width: 200px; text-align: center;" xmlns="http://www.w3.org/1999/xhtml"><span class="nodeLabel"><p>🔭 @scout<br/>활동·날씨·호텔·항공</p></span></div></foreignObject></g></g><g class="node default" id="graph-97-flowchart-CR-18" data-look="classic" transform="translate(117.2249984741211, 334)"><rect class="basic label-container" style="" x="-109.2249984741211" y="-51" width="218.4499969482422" height="102"></rect><g class="label" style="" transform="translate(-79.2249984741211, -36)"><rect></rect><foreignObject width="158.4499969482422" height="72"><div style="display: table-cell; white-space: nowrap; line-height: 1.5; max-width: 200px; text-align: center;" xmlns="http://www.w3.org/1999/xhtml"><span class="nodeLabel"><p>⚖️ @critic<br/>읽기 전용 검증 게이트<br/>불합격 시 1회 재시도</p></span></div></foreignObject></g></g><g class="node default" id="graph-97-flowchart-DB-24" data-look="classic" transform="translate(117.2249984741211, 546)"><path d="M0,14.217941156387395 a82.41666412353516,14.217941156387395 0,0,0 164.8333282470703,0 a82.41666412353516,14.217941156387395 0,0,0 -164.8333282470703,0 l0,77.2179411563874 a82.41666412353516,14.217941156387395 0,0,0 164.8333282470703,0 l0,-77.2179411563874" class="basic label-container outer-path" style="" transform="translate(-82.41666412353516, -52.826911734581095)"></path><g class="label" style="" transform="translate(-74.91666412353516, -14)"><rect></rect><foreignObject width="149.8333282470703" height="48"><div style="display: table-cell; white-space: nowrap; line-height: 1.5; max-width: 200px; text-align: center;" xmlns="http://www.w3.org/1999/xhtml"><span class="nodeLabel"><p>Tabelog DB MCP 서버<br/>SQLite · 45,725곳</p></span></div></foreignObject></g></g><g class="node default" id="graph-97-flowchart-WS-28" data-look="classic" transform="translate(631.7249908447266, 546)"><rect class="basic label-container" style="" x="-89.73332977294922" y="-39" width="179.46665954589844" height="78"></rect><g class="label" style="" transform="translate(-59.73332977294922, -24)"><rect></rect><foreignObject width="119.46665954589844" height="48"><div style="display: table-cell; white-space: nowrap; line-height: 1.5; max-width: 200px; text-align: center;" xmlns="http://www.w3.org/1999/xhtml"><span class="nodeLabel"><p>웹검색 MCP 서버<br/>(Tavily)</p></span></div></foreignObject></g></g></g></g></g></g></svg>